<?xml version="1.0" standalone="no"?>
<!DOCTYPE svg PUBLIC "-//W3C//DTD SVG 20010904//EN"
 "http://www.w3.org/TR/2001/REC-SVG-20010904/DTD/svg10.dtd">
<svg version="1.0" xmlns="http://www.w3.org/2000/svg"
 width="374.000000pt" height="87.000000pt" viewBox="0 0 374.000000 87.000000"
 preserveAspectRatio="xMidYMid meet">

<g transform="translate(0.000000,87.000000) scale(0.100000,-0.100000)"
fill="#000000" stroke="none">
<path d="M207 796 c-58 -21 -103 -61 -128 -113 -21 -42 -24 -62 -24 -158 1
-93 4 -116 22 -150 47 -89 117 -127 235 -128 99 -1 158 27 206 97 47 71 44 76
-37 76 -56 0 -72 -4 -83 -18 -32 -46 -108 -56 -153 -20 -25 20 -55 73 -55 98
0 6 64 10 185 10 l185 0 0 35 c0 110 -46 210 -117 251 -56 33 -174 43 -236 20z
m170 -128 c12 -13 25 -38 29 -55 l7 -33 -107 0 c-114 0 -116 1 -96 54 24 63
118 82 167 34z"/>
<path d="M1365 794 c-16 -8 -38 -23 -47 -31 -17 -15 -18 -14 -18 10 0 27 -1
27 -70 27 l-70 0 0 -400 0 -400 70 0 70 0 0 162 0 162 28 -26 c42 -40 72 -51
132 -51 75 0 132 30 170 90 73 115 62 315 -24 406 -56 61 -175 86 -241 51z
m117 -131 c39 -43 48 -67 48 -133 0 -107 -38 -160 -115 -160 -69 0 -106 41
-120 131 -9 60 9 125 45 161 40 40 105 40 142 1z"/>
<path d="M1955 793 c-16 -8 -38 -22 -47 -31 -17 -14 -18 -13 -18 11 0 26 -1
27 -65 27 l-65 0 0 -270 0 -270 70 0 70 0 0 154 c0 84 5 167 11 184 14 40 48
62 109 69 l50 6 0 68 0 69 -42 0 c-24 -1 -56 -8 -73 -17z"/>
<path d="M2270 801 c-132 -41 -196 -166 -170 -334 24 -155 103 -220 265 -220
78 0 131 21 176 70 24 25 59 83 59 98 0 3 -31 5 -69 5 -64 0 -72 -2 -99 -30
-53 -52 -149 -33 -178 35 -28 67 -34 65 171 65 l186 0 -7 63 c-14 132 -73 222
-161 246 -43 12 -136 13 -173 2z m126 -116 c32 -13 64 -61 64 -95 0 -6 -41
-10 -111 -10 -110 0 -110 0 -104 23 14 48 65 96 103 97 7 0 28 -7 48 -15z"/>
<path d="M2810 801 c-89 -29 -124 -70 -124 -147 0 -87 41 -128 169 -165 124
-36 154 -49 161 -71 9 -30 -25 -59 -77 -65 -57 -6 -96 9 -117 47 -16 29 -19
30 -90 30 l-72 0 6 -27 c25 -106 108 -156 255 -156 74 0 95 4 141 26 86 42
120 126 84 210 -18 44 -47 61 -163 96 -132 39 -149 47 -157 66 -8 22 -8 21 10
39 18 19 104 22 135 5 11 -5 24 -21 29 -35 9 -22 15 -24 75 -24 63 0 65 1 65
26 0 43 -41 104 -85 127 -30 16 -62 21 -130 24 -49 1 -101 -1 -115 -6z"/>
<path d="M3339 795 c-29 -9 -59 -29 -78 -50 -26 -30 -31 -44 -31 -86 0 -99 40
-135 209 -184 95 -27 107 -33 116 -59 8 -23 6 -30 -9 -42 -54 -39 -159 -23
-184 29 -12 26 -17 27 -83 27 -65 0 -69 -1 -69 -22 1 -47 43 -101 102 -132 51
-26 67 -29 153 -29 81 0 102 4 142 25 27 13 59 40 71 59 20 29 23 43 20 98 -4
56 -8 67 -36 92 -18 17 -60 36 -104 49 -172 49 -206 69 -182 108 9 13 25 17
75 17 61 0 64 -1 84 -32 19 -31 23 -32 87 -33 l68 0 -7 33 c-9 48 -39 93 -81
119 -47 29 -191 36 -263 13z"/>
<path d="M587 772 c10 -16 49 -76 86 -134 l68 -106 -85 -132 c-47 -72 -86
-133 -86 -136 0 -2 38 -4 84 -4 l84 0 42 75 c22 42 45 73 50 70 4 -3 25 -35
45 -71 20 -36 42 -67 49 -70 7 -3 47 -4 89 -2 l77 3 -89 134 -90 135 83 120
c45 67 86 127 90 134 5 9 -12 12 -76 12 l-84 0 -44 -75 c-24 -41 -47 -75 -50
-75 -3 0 -24 34 -48 75 l-42 75 -86 0 -86 0 19 -28z"/>
</g>
</svg>
